<svg version="1.1" preserveAspectRatio="none" xmlns="http://www.w3.org/2000/svg" width="500" height="500" viewBox="0 0 500 500"><rect width="100%" height="100%" fill="#FFFFFF" fill-opacity="1"/><svg viewBox="121.9323 253.3333 422.802 160" width="333" height="126.01643322406233" x="83.5px" y="186.9918px" xmlns="http://www.w3.org/2000/svg" xmlns:xlink="http://www.w3.org/1999/xlink" preserveAspectRatio="none"><defs></defs><style>.companyName {fill:#40455F;fill-opacity:1;}.icon3-str {stroke:#929292;stroke-opacity:1;}.shape {fill:#EBEBEB;fill-opacity:1;}.text {fill:#40455F;fill-opacity:1;}</style><g opacity="1" transform="rotate(0 136.6091 333.3333)">
<svg width="393.4484" height="80" x="136.6091" y="333.3333" version="1.1" preserveAspectRatio="none" viewBox="2.44 -32.76 163.27999999999997 33.2">
  <g transform="matrix(1 0 0 -1 0 -32.31999999999999)" class="shape"><path id="id-fAwcDUYEQ8" d="M2.44 0L2.44-32.40L10.44-32.40Q15.04-32.40 17.48-30.52Q19.92-28.64 19.92-24.08L19.92-24.08Q19.92-21.12 18.72-19.46Q17.52-17.80 15.24-17.44L15.24-17.44Q20.84-16.36 20.84-9.44L20.84-9.44Q20.84-4.76 18.56-2.38Q16.28 0 11.80 0L11.80 0L2.44 0ZM8.32-19.16L10.36-19.16Q12.92-19.16 13.86-20.30Q14.80-21.44 14.80-24L14.80-24Q14.80-26.48 13.58-27.38Q12.36-28.28 9.52-28.28L9.52-28.28L8.32-28.28L8.32-19.16ZM8.32-4.16L10.60-4.16Q13.20-4.16 14.20-5.40Q15.20-6.64 15.20-9.48L15.20-9.48Q15.20-12.40 14.10-13.74Q13-15.08 10.40-15.08L10.40-15.08L8.32-15.08L8.32-4.16Z M24.72 0L24.72-32.40L32.52-32.40Q37.64-32.40 40.16-30.46Q42.68-28.52 42.68-23.80L42.68-23.80Q42.68-20.72 41.78-18.78Q40.88-16.84 38.68-15.96L38.68-15.96L43.20 0L37.28 0L33.40-14.84L30.60-14.84L30.60 0L24.72 0ZM30.60-18.52L32.48-18.52Q35-18.52 36.06-19.68Q37.12-20.84 37.12-23.48L37.12-23.48Q37.12-26.04 36.18-27.20Q35.24-28.36 32.80-28.36L32.80-28.36L30.60-28.36L30.60-18.52Z M55.84 0.44Q50.80 0.44 48.64-2.26Q46.48-4.96 46.48-10.16L46.48-10.16L46.48-22.32Q46.48-27.48 48.64-30.12Q50.80-32.76 55.84-32.76L55.84-32.76Q60.84-32.76 63-30.12Q65.16-27.48 65.16-22.32L65.16-22.32L65.16-10.16Q65.16-5 62.98-2.28Q60.80 0.44 55.84 0.44L55.84 0.44ZM55.84-3.92Q57.80-3.92 58.48-5.16Q59.16-6.40 59.16-8.76L59.16-8.76L59.16-23.68Q59.16-26.04 58.50-27.24Q57.84-28.44 55.84-28.44L55.84-28.44Q53.84-28.44 53.16-27.22Q52.48-26 52.48-23.68L52.48-23.68L52.48-8.76Q52.48-6.40 53.16-5.16Q53.84-3.92 55.84-3.92L55.84-3.92Z M72.60 0L72.60-28.04L67.44-28.04L67.44-32.40L83.56-32.40L83.56-28.04L78.52-28.04L78.52 0L72.60 0Z M86.60 0L86.60-32.40L92.48-32.40L92.48-18.88L99.08-18.88L99.08-32.40L105-32.40L105 0L99.08 0L99.08-14.64L92.48-14.64L92.48 0L86.60 0Z M109.96 0L109.96-32.40L123.56-32.40L123.56-28.24L115.84-28.24L115.84-18.92L121.92-18.92L121.92-14.80L115.84-14.80L115.84-4.04L123.64-4.04L123.64 0L109.96 0Z M127.08 0L127.08-32.40L134.88-32.40Q140-32.40 142.52-30.46Q145.04-28.52 145.04-23.80L145.04-23.80Q145.04-20.72 144.14-18.78Q143.24-16.84 141.04-15.96L141.04-15.96L145.56 0L139.64 0L135.76-14.84L132.96-14.84L132.96 0L127.08 0ZM132.96-18.52L134.84-18.52Q137.36-18.52 138.42-19.68Q139.48-20.84 139.48-23.48L139.48-23.48Q139.48-26.04 138.54-27.20Q137.60-28.36 135.16-28.36L135.16-28.36L132.96-28.36L132.96-18.52Z M157.60 0.44Q153.20 0.44 151.02-2.04Q148.84-4.52 148.64-9.44L148.64-9.44L153.72-10.44Q153.84-7.36 154.70-5.74Q155.56-4.12 157.40-4.12L157.40-4.12Q158.76-4.12 159.42-4.94Q160.08-5.76 160.08-7.16L160.08-7.16Q160.08-9.08 159.22-10.42Q158.36-11.76 156.52-13.36L156.52-13.36L152.44-16.92Q150.56-18.52 149.62-20.36Q148.68-22.20 148.68-24.76L148.68-24.76Q148.68-28.56 150.90-30.66Q153.12-32.76 157.04-32.76L157.04-32.76Q161.24-32.76 163.06-30.38Q164.88-28 165.16-23.96L165.16-23.96L160.08-23.08Q159.96-25.72 159.34-27.06Q158.72-28.40 156.92-28.40L156.92-28.40Q155.64-28.40 154.92-27.54Q154.20-26.68 154.20-25.36L154.20-25.36Q154.20-23.80 154.82-22.74Q155.44-21.68 156.84-20.48L156.84-20.48L160.88-16.92Q163.16-14.96 164.44-12.72Q165.72-10.48 165.72-7.52L165.72-7.52Q165.72-5.20 164.70-3.40Q163.68-1.60 161.84-0.58Q160 0.44 157.60 0.44L157.60 0.44Z"/></g>
</svg>
</g><g opacity="1" transform="rotate(0 121.9323 341.3333)">
<svg width="422.802" height="20.8" x="121.9323" y="341.3333" version="1.1" preserveAspectRatio="none" viewBox="3.76 -29.68 609 29.96">
  <g transform="matrix(1 0 0 1 0 0)" class="text"><path id="id-6izo4zJp26" d="M3.76 0L3.76-28L8.96-28L8.96 0L3.76 0Z M28.96-21.60Q33-21.60 35.44-19.24Q37.88-16.88 37.88-12.24L37.88-12.24L37.88 0L32.88 0L32.88-11.60Q32.88-14.40 31.56-15.82Q30.24-17.24 27.80-17.24L27.80-17.24Q25.04-17.24 23.44-15.58Q21.84-13.92 21.84-10.80L21.84-10.80L21.84 0L16.84 0L16.84-21.36L21.60-21.36L21.60-18.60Q22.84-20.08 24.72-20.84Q26.60-21.60 28.96-21.60L28.96-21.60Z M57.16-21.60Q61.20-21.60 63.64-19.24Q66.08-16.88 66.08-12.24L66.08-12.24L66.08 0L61.08 0L61.08-11.60Q61.08-14.40 59.76-15.82Q58.44-17.24 56-17.24L56-17.24Q53.24-17.24 51.64-15.58Q50.04-13.92 50.04-10.80L50.04-10.80L50.04 0L45.04 0L45.04-21.36L49.80-21.36L49.80-18.60Q51.04-20.08 52.92-20.84Q54.80-21.60 57.16-21.60L57.16-21.60Z M83.04 0.28Q79.80 0.28 77.20-1.12Q74.60-2.52 73.14-5.02Q71.68-7.52 71.68-10.68L71.68-10.68Q71.68-13.84 73.14-16.32Q74.60-18.80 77.20-20.20Q79.80-21.60 83.04-21.60L83.04-21.60Q86.32-21.60 88.92-20.20Q91.52-18.80 92.98-16.32Q94.44-13.84 94.44-10.68L94.44-10.68Q94.44-7.52 92.98-5.02Q91.52-2.52 88.92-1.12Q86.32 0.28 83.04 0.28L83.04 0.28ZM83.04-4Q85.80-4 87.60-5.84Q89.40-7.68 89.40-10.68L89.40-10.68Q89.40-13.68 87.60-15.52Q85.80-17.36 83.04-17.36L83.04-17.36Q80.28-17.36 78.50-15.52Q76.72-13.68 76.72-10.68L76.72-10.68Q76.72-7.68 78.50-5.84Q80.28-4 83.04-4L83.04-4Z M114.64-21.36L119.44-21.36L110.28 0L105.12 0L95.96-21.36L101.16-21.36L107.80-5.52L114.64-21.36Z M130.84-21.60Q135.56-21.60 138.06-19.34Q140.56-17.08 140.56-12.52L140.56-12.52L140.56 0L135.84 0L135.84-2.60Q134.92-1.20 133.22-0.46Q131.52 0.28 129.12 0.28L129.12 0.28Q126.72 0.28 124.92-0.54Q123.12-1.36 122.14-2.82Q121.16-4.28 121.16-6.12L121.16-6.12Q121.16-9 123.30-10.74Q125.44-12.48 130.04-12.48L130.04-12.48L135.56-12.48L135.56-12.80Q135.56-15.04 134.22-16.24Q132.88-17.44 130.24-17.44L130.24-17.44Q128.44-17.44 126.70-16.88Q124.96-16.32 123.76-15.32L123.76-15.32L121.80-18.96Q123.48-20.24 125.84-20.92Q128.20-21.60 130.84-21.60L130.84-21.60ZM130.16-3.36Q132.04-3.36 133.50-4.22Q134.96-5.08 135.56-6.68L135.56-6.68L135.56-9.16L130.40-9.16Q126.08-9.16 126.08-6.32L126.08-6.32Q126.08-4.96 127.16-4.16Q128.24-3.36 130.16-3.36L130.16-3.36Z M159.20-4.72L160.60-1.16Q159.72-0.44 158.46-0.08Q157.20 0.28 155.80 0.28L155.80 0.28Q152.28 0.28 150.36-1.56Q148.44-3.40 148.44-6.92L148.44-6.92L148.44-17.20L144.92-17.20L144.92-21.20L148.44-21.20L148.44-26.08L153.44-26.08L153.44-21.20L159.16-21.20L159.16-17.20L153.44-17.20L153.44-7.04Q153.44-5.48 154.20-4.66Q154.96-3.84 156.40-3.84L156.40-3.84Q158.08-3.84 159.20-4.72L159.20-4.72Z M184.88-10.56Q184.88-10.04 184.80-9.08L184.80-9.08L168.04-9.08Q168.48-6.72 170.34-5.34Q172.20-3.96 174.96-3.96L174.96-3.96Q178.48-3.96 180.76-6.28L180.76-6.28L183.44-3.20Q182.00-1.48 179.80-0.60Q177.60 0.28 174.84 0.28L174.84 0.28Q171.32 0.28 168.64-1.12Q165.96-2.52 164.50-5.02Q163.04-7.52 163.04-10.68L163.04-10.68Q163.04-13.80 164.46-16.30Q165.88-18.80 168.40-20.20Q170.92-21.60 174.08-21.60L174.08-21.60Q177.20-21.60 179.66-20.22Q182.12-18.84 183.50-16.34Q184.88-13.84 184.88-10.56L184.88-10.56ZM174.08-17.60Q171.68-17.60 170.02-16.18Q168.36-14.76 168.00-12.40L168.00-12.40L180.12-12.40Q179.80-14.72 178.16-16.16Q176.52-17.60 174.08-17.60L174.08-17.60Z M225.84-28L214.88-9.88L214.88 0L209.68 0L209.68-9.80L198.68-28L204.24-28L212.44-14.36L220.72-28L225.84-28Z M236.76 0.28Q233.52 0.28 230.92-1.12Q228.32-2.52 226.86-5.02Q225.40-7.52 225.40-10.68L225.40-10.68Q225.40-13.84 226.86-16.32Q228.32-18.80 230.92-20.20Q233.52-21.60 236.76-21.60L236.76-21.60Q240.04-21.60 242.64-20.20Q245.24-18.80 246.70-16.32Q248.16-13.84 248.16-10.68L248.16-10.68Q248.16-7.52 246.70-5.02Q245.24-2.52 242.64-1.12Q240.04 0.28 236.76 0.28L236.76 0.28ZM236.76-4Q239.52-4 241.32-5.84Q243.12-7.68 243.12-10.68L243.12-10.68Q243.12-13.68 241.32-15.52Q239.52-17.36 236.76-17.36L236.76-17.36Q234.00-17.36 232.22-15.52Q230.44-13.68 230.44-10.68L230.44-10.68Q230.44-7.68 232.22-5.84Q234.00-4 236.76-4L236.76-4Z M269.44-21.36L274.44-21.36L274.44 0L269.68 0L269.68-2.72Q268.48-1.28 266.68-0.50Q264.88 0.28 262.80 0.28L262.80 0.28Q258.52 0.28 256.06-2.10Q253.60-4.48 253.60-9.16L253.60-9.16L253.60-21.36L258.60-21.36L258.60-9.84Q258.60-6.96 259.90-5.54Q261.20-4.12 263.60-4.12L263.60-4.12Q266.28-4.12 267.86-5.78Q269.44-7.44 269.44-10.56L269.44-10.56L269.44-21.36Z M286.56-18.24Q288.72-21.60 294.16-21.60L294.16-21.60L294.16-16.84Q293.52-16.96 293.00-16.96L293.00-16.96Q290.08-16.96 288.44-15.26Q286.80-13.56 286.80-10.36L286.80-10.36L286.80 0L281.80 0L281.80-21.36L286.56-21.36L286.56-18.24Z M347.68-28L352.64-28L343.36 0L337.84 0L330.92-20.72L323.88 0L318.32 0L309.04-28L314.44-28L321.40-6.72L328.64-28L333.44-28L340.52-6.60L347.68-28Z M375.68-10.56Q375.68-10.04 375.60-9.08L375.60-9.08L358.84-9.08Q359.28-6.72 361.14-5.34Q363.00-3.96 365.76-3.96L365.76-3.96Q369.28-3.96 371.56-6.28L371.56-6.28L374.24-3.20Q372.80-1.48 370.60-0.60Q368.40 0.28 365.64 0.28L365.64 0.28Q362.12 0.28 359.44-1.12Q356.76-2.52 355.30-5.02Q353.84-7.52 353.84-10.68L353.84-10.68Q353.84-13.80 355.26-16.30Q356.68-18.80 359.20-20.20Q361.72-21.60 364.88-21.60L364.88-21.60Q368.00-21.60 370.46-20.22Q372.92-18.84 374.30-16.34Q375.68-13.84 375.68-10.56L375.68-10.56ZM364.88-17.60Q362.48-17.60 360.82-16.18Q359.16-14.76 358.80-12.40L358.80-12.40L370.92-12.40Q370.60-14.72 368.96-16.16Q367.32-17.60 364.88-17.60L364.88-17.60Z M393.12-21.60Q396.24-21.60 398.70-20.24Q401.16-18.88 402.56-16.40Q403.96-13.92 403.96-10.68L403.96-10.68Q403.96-7.44 402.56-4.94Q401.16-2.44 398.70-1.08Q396.24 0.28 393.12 0.28L393.12 0.28Q390.92 0.28 389.10-0.48Q387.28-1.24 386.04-2.76L386.04-2.76L386.04 0L381.28 0L381.28-29.68L386.28-29.68L386.28-18.76Q387.56-20.16 389.30-20.88Q391.04-21.60 393.12-21.60L393.12-21.60ZM392.56-4Q395.32-4 397.10-5.84Q398.88-7.68 398.88-10.68L398.88-10.68Q398.88-13.68 397.10-15.52Q395.32-17.36 392.56-17.36L392.56-17.36Q390.76-17.36 389.32-16.54Q387.88-15.72 387.04-14.20Q386.20-12.68 386.20-10.68L386.20-10.68Q386.20-8.68 387.04-7.16Q387.88-5.64 389.32-4.82Q390.76-4 392.56-4L392.56-4Z M433.36-28Q437.00-28 439.70-26.80Q442.40-25.60 443.84-23.36Q445.28-21.12 445.28-18.04L445.28-18.04Q445.28-15 443.84-12.74Q442.40-10.48 439.70-9.28Q437.00-8.08 433.36-8.08L433.36-8.08L427.04-8.08L427.04 0L421.84 0L421.84-28L433.36-28ZM433.12-12.48Q436.52-12.48 438.28-13.92Q440.04-15.36 440.04-18.04L440.04-18.04Q440.04-20.72 438.28-22.16Q436.52-23.60 433.12-23.60L433.12-23.60L427.04-23.60L427.04-12.48L433.12-12.48Z M455.36-18.24Q457.52-21.60 462.96-21.60L462.96-21.60L462.96-16.84Q462.32-16.96 461.80-16.96L461.80-16.96Q458.88-16.96 457.24-15.26Q455.60-13.56 455.60-10.36L455.60-10.36L455.60 0L450.60 0L450.60-21.36L455.36-21.36L455.36-18.24Z M487.88-10.56Q487.88-10.04 487.80-9.08L487.80-9.08L471.04-9.08Q471.48-6.72 473.34-5.34Q475.20-3.96 477.96-3.96L477.96-3.96Q481.48-3.96 483.76-6.28L483.76-6.28L486.44-3.20Q485.00-1.48 482.80-0.60Q480.60 0.28 477.84 0.28L477.84 0.28Q474.32 0.28 471.64-1.12Q468.96-2.52 467.50-5.02Q466.04-7.52 466.04-10.68L466.04-10.68Q466.04-13.80 467.46-16.30Q468.88-18.80 471.40-20.20Q473.92-21.60 477.08-21.60L477.08-21.60Q480.20-21.60 482.66-20.22Q485.12-18.84 486.50-16.34Q487.88-13.84 487.88-10.56L487.88-10.56ZM477.08-17.60Q474.68-17.60 473.02-16.18Q471.36-14.76 471.00-12.40L471.00-12.40L483.12-12.40Q482.80-14.72 481.16-16.16Q479.52-17.60 477.08-17.60L477.08-17.60Z M500.08 0.28Q497.48 0.28 495.00-0.40Q492.52-1.08 491.04-2.12L491.04-2.12L492.96-5.92Q494.40-4.96 496.42-4.38Q498.44-3.80 500.40-3.80L500.40-3.80Q504.88-3.80 504.88-6.16L504.88-6.16Q504.88-7.28 503.74-7.72Q502.60-8.16 500.08-8.56L500.08-8.56Q497.44-8.96 495.78-9.48Q494.12-10 492.90-11.30Q491.68-12.60 491.68-14.92L491.68-14.92Q491.68-17.96 494.22-19.78Q496.76-21.60 501.08-21.60L501.08-21.60Q503.28-21.60 505.48-21.10Q507.68-20.60 509.08-19.76L509.08-19.76L507.16-15.96Q504.44-17.56 501.04-17.56L501.04-17.56Q498.84-17.56 497.70-16.90Q496.56-16.24 496.56-15.16L496.56-15.16Q496.56-13.96 497.78-13.46Q499.00-12.96 501.56-12.52L501.56-12.52Q504.12-12.12 505.76-11.60Q507.40-11.08 508.58-9.84Q509.76-8.60 509.76-6.32L509.76-6.32Q509.76-3.32 507.16-1.52Q504.56 0.28 500.08 0.28L500.08 0.28Z M534.96-10.56Q534.96-10.04 534.88-9.08L534.88-9.08L518.12-9.08Q518.56-6.72 520.42-5.34Q522.28-3.96 525.04-3.96L525.04-3.96Q528.56-3.96 530.84-6.28L530.84-6.28L533.52-3.20Q532.08-1.48 529.88-0.60Q527.68 0.28 524.92 0.28L524.92 0.28Q521.40 0.28 518.72-1.12Q516.04-2.52 514.58-5.02Q513.12-7.52 513.12-10.68L513.12-10.68Q513.12-13.80 514.54-16.30Q515.96-18.80 518.48-20.20Q521.00-21.60 524.16-21.60L524.16-21.60Q527.28-21.60 529.74-20.22Q532.20-18.84 533.58-16.34Q534.96-13.84 534.96-10.56L534.96-10.56ZM524.16-17.60Q521.76-17.60 520.10-16.18Q518.44-14.76 518.08-12.40L518.08-12.40L530.20-12.40Q529.88-14.72 528.24-16.16Q526.60-17.60 524.16-17.60L524.16-17.60Z M552.68-21.60Q556.72-21.60 559.16-19.24Q561.60-16.88 561.60-12.24L561.60-12.24L561.60 0L556.60 0L556.60-11.60Q556.60-14.40 555.28-15.82Q553.96-17.24 551.52-17.24L551.52-17.24Q548.76-17.24 547.16-15.58Q545.56-13.92 545.56-10.80L545.56-10.80L545.56 0L540.56 0L540.56-21.36L545.32-21.36L545.32-18.60Q546.56-20.08 548.44-20.84Q550.32-21.60 552.68-21.60L552.68-21.60Z M578.76 0.28Q575.44 0.28 572.80-1.12Q570.16-2.52 568.68-5.02Q567.20-7.52 567.20-10.68L567.20-10.68Q567.20-13.84 568.68-16.32Q570.16-18.80 572.78-20.20Q575.40-21.60 578.76-21.60L578.76-21.60Q581.92-21.60 584.30-20.32Q586.68-19.04 587.88-16.64L587.88-16.64L584.04-14.40Q583.12-15.88 581.74-16.62Q580.36-17.36 578.72-17.36L578.72-17.36Q575.92-17.36 574.08-15.54Q572.24-13.72 572.24-10.68L572.24-10.68Q572.24-7.64 574.06-5.82Q575.88-4 578.72-4L578.72-4Q580.36-4 581.74-4.74Q583.12-5.48 584.04-6.96L584.04-6.96L587.88-4.72Q586.64-2.32 584.26-1.02Q581.88 0.28 578.76 0.28L578.76 0.28Z M612.76-10.56Q612.76-10.04 612.68-9.08L612.68-9.08L595.92-9.08Q596.36-6.72 598.22-5.34Q600.08-3.96 602.84-3.96L602.84-3.96Q606.36-3.96 608.64-6.28L608.64-6.28L611.32-3.20Q609.88-1.48 607.68-0.60Q605.48 0.28 602.72 0.28L602.72 0.28Q599.20 0.28 596.52-1.12Q593.84-2.52 592.38-5.02Q590.92-7.52 590.92-10.68L590.92-10.68Q590.92-13.80 592.34-16.30Q593.76-18.80 596.28-20.20Q598.80-21.60 601.96-21.60L601.96-21.60Q605.08-21.60 607.54-20.22Q610.00-18.84 611.38-16.34Q612.76-13.84 612.76-10.56L612.76-10.56ZM601.96-17.60Q599.56-17.60 597.90-16.18Q596.24-14.76 595.88-12.40L595.88-12.40L608.00-12.40Q607.68-14.72 606.04-16.16Q604.40-17.60 601.96-17.60L601.96-17.60Z"/></g>
</svg>
</g><g opacity="1" transform="rotate(0 136.6092 253.3333)">
<svg width="393.4481" height="80" x="136.6092" y="253.3333" version="1.1" preserveAspectRatio="none" viewBox="2.44 -32.76 163.27999999999997 33.2">
  <g transform="matrix(1 0 0 1 0 0)" class="companyName"><path id="id-D6z1nYkh8" d="M2.44 0L2.44-32.40L10.44-32.40Q15.04-32.40 17.48-30.52Q19.92-28.64 19.92-24.08L19.92-24.08Q19.92-21.12 18.72-19.46Q17.52-17.80 15.24-17.44L15.24-17.44Q20.84-16.36 20.84-9.44L20.84-9.44Q20.84-4.76 18.56-2.38Q16.28 0 11.80 0L11.80 0L2.44 0ZM8.32-19.16L10.36-19.16Q12.92-19.16 13.86-20.30Q14.80-21.44 14.80-24L14.80-24Q14.80-26.48 13.58-27.38Q12.36-28.28 9.52-28.28L9.52-28.28L8.32-28.28L8.32-19.16ZM8.32-4.16L10.60-4.16Q13.20-4.16 14.20-5.40Q15.20-6.64 15.20-9.48L15.20-9.48Q15.20-12.40 14.10-13.74Q13-15.08 10.40-15.08L10.40-15.08L8.32-15.08L8.32-4.16Z M24.72 0L24.72-32.40L32.52-32.40Q37.64-32.40 40.16-30.46Q42.68-28.52 42.68-23.80L42.68-23.80Q42.68-20.72 41.78-18.78Q40.88-16.84 38.68-15.96L38.68-15.96L43.20 0L37.28 0L33.40-14.84L30.60-14.84L30.60 0L24.72 0ZM30.60-18.52L32.48-18.52Q35-18.52 36.06-19.68Q37.12-20.84 37.12-23.48L37.12-23.48Q37.12-26.04 36.18-27.20Q35.24-28.36 32.80-28.36L32.80-28.36L30.60-28.36L30.60-18.52Z M55.84 0.44Q50.80 0.44 48.64-2.26Q46.48-4.96 46.48-10.16L46.48-10.16L46.48-22.32Q46.48-27.48 48.64-30.12Q50.80-32.76 55.84-32.76L55.84-32.76Q60.84-32.76 63-30.12Q65.16-27.48 65.16-22.32L65.16-22.32L65.16-10.16Q65.16-5 62.98-2.28Q60.80 0.44 55.84 0.44L55.84 0.44ZM55.84-3.92Q57.80-3.92 58.48-5.16Q59.16-6.40 59.16-8.76L59.16-8.76L59.16-23.68Q59.16-26.04 58.50-27.24Q57.84-28.44 55.84-28.44L55.84-28.44Q53.84-28.44 53.16-27.22Q52.48-26 52.48-23.68L52.48-23.68L52.48-8.76Q52.48-6.40 53.16-5.16Q53.84-3.92 55.84-3.92L55.84-3.92Z M72.60 0L72.60-28.04L67.44-28.04L67.44-32.40L83.56-32.40L83.56-28.04L78.52-28.04L78.52 0L72.60 0Z M86.60 0L86.60-32.40L92.48-32.40L92.48-18.88L99.08-18.88L99.08-32.40L105-32.40L105 0L99.08 0L99.08-14.64L92.48-14.64L92.48 0L86.60 0Z M109.96 0L109.96-32.40L123.56-32.40L123.56-28.24L115.84-28.24L115.84-18.92L121.92-18.92L121.92-14.80L115.84-14.80L115.84-4.04L123.64-4.04L123.64 0L109.96 0Z M127.08 0L127.08-32.40L134.88-32.40Q140-32.40 142.52-30.46Q145.04-28.52 145.04-23.80L145.04-23.80Q145.04-20.72 144.14-18.78Q143.24-16.84 141.04-15.96L141.04-15.96L145.56 0L139.64 0L135.76-14.84L132.96-14.84L132.96 0L127.08 0ZM132.96-18.52L134.84-18.52Q137.36-18.52 138.42-19.68Q139.48-20.84 139.48-23.48L139.48-23.48Q139.48-26.04 138.54-27.20Q137.60-28.36 135.16-28.36L135.16-28.36L132.96-28.36L132.96-18.52Z M157.60 0.44Q153.20 0.44 151.02-2.04Q148.84-4.52 148.64-9.44L148.64-9.44L153.72-10.44Q153.84-7.36 154.70-5.74Q155.56-4.12 157.40-4.12L157.40-4.12Q158.76-4.12 159.42-4.94Q160.08-5.76 160.08-7.16L160.08-7.16Q160.08-9.08 159.22-10.42Q158.36-11.76 156.52-13.36L156.52-13.36L152.44-16.92Q150.56-18.52 149.62-20.36Q148.68-22.20 148.68-24.76L148.68-24.76Q148.68-28.56 150.90-30.66Q153.12-32.76 157.04-32.76L157.04-32.76Q161.24-32.76 163.06-30.38Q164.88-28 165.16-23.96L165.16-23.96L160.08-23.08Q159.96-25.72 159.34-27.06Q158.72-28.40 156.92-28.40L156.92-28.40Q155.64-28.40 154.92-27.54Q154.20-26.68 154.20-25.36L154.20-25.36Q154.20-23.80 154.82-22.74Q155.44-21.68 156.84-20.48L156.84-20.48L160.88-16.92Q163.16-14.96 164.44-12.72Q165.72-10.48 165.72-7.52L165.72-7.52Q165.72-5.20 164.70-3.40Q163.68-1.60 161.84-0.58Q160 0.44 157.60 0.44L157.60 0.44Z"/></g>
</svg>
</g></svg></svg>